<svg width="24" height="24" viewBox="0 0 24 24" fill="none" xmlns="http://www.w3.org/2000/svg">
<path d="M12 14.197C13.2134 14.197 14.197 13.2134 14.197 12C14.197 10.7866 13.2134 9.803 12 9.803C10.7866 9.803 9.803 10.7866 9.803 12C9.803 13.2134 10.7866 14.197 12 14.197Z" fill="#001D4E"/>
<path d="M21.6344 6.43671C20.9253 5.20948 19.2229 4.70529 16.8381 5.01317C16.5356 5.05259 16.2246 5.10696 15.9089 5.17086C15.0086 2.619 13.6066 1 12 1C10.3909 1 8.98713 2.62441 8.087 5.1834C5.3486 4.64072 3.18043 5.02671 2.36514 6.43671C1.55256 7.84376 2.2947 9.90626 4.12193 12C2.2947 14.0937 1.55256 16.1562 2.3651 17.5633C2.94653 18.5706 4.2151 19.0587 5.88963 19.0587C6.62808 19.0486 7.36382 18.9672 8.08663 18.8157C8.98673 21.3752 10.3907 23 12 23C13.6066 23 15.0085 21.381 15.9088 18.8291C16.2246 18.893 16.5355 18.9474 16.8381 18.9868C17.2681 19.0438 17.7013 19.0732 18.1351 19.0748C19.8397 19.0748 21.0616 18.5546 21.6344 17.5633C22.447 16.1563 21.705 14.0938 19.878 12C21.7049 9.90626 22.447 7.84376 21.6344 6.43671ZM16.9851 6.13956C17.3695 6.088 17.7569 6.06113 18.1448 6.0591C19.4052 6.0591 20.2945 6.38736 20.6518 7.00527C21.156 7.87862 20.5853 9.44665 19.0999 11.173C18.3818 10.4665 17.6126 9.81375 16.7985 9.22023C16.6897 8.22924 16.5068 7.24779 16.2514 6.28411C16.4954 6.23744 16.7503 6.17013 16.9851 6.13956ZM13.9127 15.3137C13.2663 15.687 12.6287 16.0172 12.0058 16.3072C11.3664 16.0097 10.7246 15.6819 10.0868 15.3137C9.43791 14.9391 8.83154 14.5505 8.2672 14.1546C8.20491 13.4685 8.17032 12.7496 8.17032 12C8.17032 11.2504 8.20491 10.5315 8.2672 9.84544C8.83154 9.44953 9.43791 9.06086 10.0868 8.68627C10.7217 8.31979 11.3606 7.99294 11.997 7.69645C12.6237 7.98777 13.2621 8.31054 13.9128 8.68627C14.5618 9.06099 15.1685 9.44973 15.733 9.84585C15.7952 10.5318 15.8298 11.2506 15.8298 12C15.8298 12.7494 15.7952 13.4681 15.733 14.1542C15.1685 14.5503 14.5618 14.939 13.9127 15.3137ZM15.5407 15.6488C15.4421 16.2633 15.3115 16.8721 15.1494 17.4729C14.5533 17.3083 13.9658 17.1139 13.3893 16.8903C13.7522 16.7032 14.1164 16.507 14.4813 16.2963C14.8457 16.086 15.1977 15.8693 15.5408 15.6488H15.5407ZM10.6167 16.8925C10.0383 17.116 9.44897 17.31 8.851 17.474C8.68868 16.8728 8.55791 16.2634 8.45924 15.6485C8.80252 15.8691 9.15465 16.0858 9.51924 16.2964C9.88355 16.5068 10.2499 16.7035 10.6167 16.8925H10.6167ZM7.07428 13.2504C6.58704 12.8576 6.12016 12.4403 5.67548 12C6.12017 11.5597 6.58704 11.1423 7.07428 10.7496C7.05423 11.1599 7.04176 11.5759 7.04176 12C7.04176 12.4241 7.05423 12.8401 7.07428 13.2504ZM8.45928 8.3515C8.55782 7.73769 8.68833 7.12944 8.85028 6.52923C9.44951 6.69124 10.0401 6.88376 10.6197 7.10604C10.2519 7.29551 9.88465 7.49263 9.51934 7.70363C9.15468 7.91416 8.80255 8.13092 8.45927 8.3515H8.45928ZM13.3899 7.1095C13.9663 6.88608 14.5535 6.69171 15.1494 6.52713C15.3115 7.12793 15.4422 7.73679 15.5408 8.35121C15.1977 8.13076 14.8457 7.91406 14.4813 7.70367C14.1166 7.4931 13.7526 7.29652 13.3898 7.10946L13.3899 7.1095ZM16.9258 10.75C17.4128 11.1426 17.8795 11.5598 18.324 12C17.8795 12.4402 17.4128 12.8574 16.9257 13.25C16.9457 12.8399 16.9583 12.424 16.9583 12C16.9583 11.576 16.9458 11.1601 16.9258 10.75ZM12 2.12854C12.9977 2.12854 14.0561 3.36287 14.8075 5.43898C13.848 5.70838 12.9091 6.04639 11.9981 6.45039C11.0879 6.04755 10.1495 5.71146 9.19055 5.44481C9.94208 3.36508 11.0016 2.12854 12 2.12854ZM3.34774 7.00527C3.69907 6.39702 4.59964 6.0709 5.86817 6.0709C6.50091 6.07984 7.13147 6.14729 7.75179 6.27238C7.49471 7.2399 7.31075 8.22539 7.20147 9.2205C6.38728 9.81398 5.61797 10.4667 4.89981 11.1734C3.41412 9.44692 2.84341 7.87869 3.34774 7.00527ZM3.34774 16.9947C2.84341 16.1213 3.41412 14.5531 4.89981 12.8266C5.618 13.5333 6.38731 14.186 7.20147 14.7795C7.31088 15.7765 7.49533 16.7638 7.75327 17.7331C5.50578 18.162 3.85468 17.8724 3.34774 16.9947ZM12 21.8715C11.0013 21.8715 9.94153 20.6344 9.18993 18.5537C10.1503 18.2885 11.09 17.9534 12.0015 17.5512C12.9115 17.9545 13.8492 18.2919 14.8075 18.5609C14.0562 20.6371 12.9978 21.8715 12 21.8715ZM20.6518 16.9947C20.1926 17.7875 18.8592 18.104 16.9851 17.8604C16.7503 17.8299 16.4954 17.7626 16.2514 17.7159C16.5068 16.7522 16.6896 15.7707 16.7985 14.7797C17.6126 14.1862 18.3818 13.5336 19.0999 12.827C20.5853 14.5533 21.156 16.1214 20.6518 16.9947H20.6518Z" fill="#001D4E"/>
</svg>
