<svg width="45" height="36" viewBox="0 0 45 36" fill="none" xmlns="http://www.w3.org/2000/svg">
<g clip-path="url(#clip0_122_146)">
<path d="M30.3736 31.5007L27.0007 31.5042V29.25H18.0007V31.5148L14.6271 31.5183C14.0069 31.519 13.5042 32.0217 13.5035 32.6426L13.5 34.8736C13.4993 35.4959 14.0041 36.0007 14.6264 36L30.3736 35.9817C30.9937 35.981 31.4965 35.4783 31.4972 34.8581L31.5 32.6271C31.5007 32.0048 30.9958 31.5 30.3736 31.5007ZM41.1469 1.88016C40.9626 0.795234 40.0071 0 38.887 0H6.11225C4.99218 0 4.03663 0.795234 3.85241 1.88016C-0.233448 25.9566 0.00280163 24.4744 0.0020985 24.75C-1.08703e-05 25.9678 1.00686 27 2.29429 27H42.7057C43.9875 27 44.9915 25.9762 44.9972 24.7648C44.9986 24.4779 45.2327 25.9566 41.1469 1.88016ZM18.2693 4.5H26.73L27.4169 11.25H17.5823L18.2693 4.5ZM12.9839 22.5H4.9985L6.33514 14.625H13.7862L12.9839 22.5ZM14.1293 11.25H6.90749L8.05288 4.5H14.8162L14.1293 11.25ZM16.4369 22.5L17.2385 14.625H27.7608L28.5623 22.5H16.4369ZM30.183 4.5H36.9464L38.0918 11.25H30.87L30.183 4.5ZM32.0154 22.5L31.2138 14.625H38.6648L40.0015 22.5H32.0154Z" fill="#88ABE5"/>
</g>
<defs>
<clipPath id="clip0_122_146">
<rect width="45" height="36" fill="white"/>
</clipPath>
</defs>
</svg>
