<svg width="118" height="28" viewBox="0 0 118 28" fill="none" xmlns="http://www.w3.org/2000/svg">
<path d="M25.7764 24.64C25.1204 24.64 24.5044 24.544 23.9284 24.352C23.3524 24.168 22.8444 23.884 22.4044 23.5C21.9644 23.116 21.6204 22.636 21.3724 22.06C21.1244 21.484 21.0004 20.808 21.0004 20.032C21.0004 19.536 21.0764 19.02 21.2284 18.484C21.3884 17.94 21.6324 17.416 21.9604 16.912C22.2884 16.4 22.7124 15.94 23.2324 15.532C23.7604 15.124 24.3884 14.8 25.1164 14.56C25.8524 14.312 26.7004 14.188 27.6604 14.188C28.6524 14.188 29.4964 14.38 30.1924 14.764C30.8884 15.14 31.4204 15.652 31.7884 16.3C32.1644 16.94 32.3524 17.66 32.3524 18.46C32.3524 18.948 32.2804 19.412 32.1364 19.852C31.9924 20.284 31.7844 20.668 31.5124 21.004C31.2484 21.34 30.9324 21.608 30.5644 21.808C30.2044 22 29.8044 22.096 29.3644 22.096C29.0364 22.096 28.7524 22.02 28.5124 21.868C28.2804 21.708 28.1124 21.488 28.0084 21.208C27.9044 20.928 27.8844 20.604 27.9484 20.236L28.1644 20.8C28.0364 21 27.8524 21.204 27.6124 21.412C27.3724 21.612 27.0964 21.78 26.7844 21.916C26.4804 22.052 26.1684 22.12 25.8484 22.12C25.4084 22.12 25.0164 22.028 24.6724 21.844C24.3284 21.652 24.0564 21.384 23.8564 21.04C23.6644 20.688 23.5684 20.276 23.5684 19.804C23.5684 19.236 23.6924 18.724 23.9404 18.268C24.1884 17.812 24.5284 17.452 24.9604 17.188C25.4004 16.916 25.9004 16.78 26.4604 16.78C26.8124 16.78 27.1044 16.828 27.3364 16.924C27.5764 17.012 27.7724 17.136 27.9244 17.296C28.0764 17.448 28.1964 17.616 28.2844 17.8L28.4884 16.984H29.6404L29.1844 20.212C29.1524 20.436 29.1684 20.624 29.2324 20.776C29.3044 20.92 29.4484 20.992 29.6644 20.992C29.9204 20.992 30.1684 20.88 30.4084 20.656C30.6484 20.432 30.8444 20.132 30.9964 19.756C31.1484 19.372 31.2244 18.94 31.2244 18.46C31.2244 17.852 31.0804 17.3 30.7924 16.804C30.5124 16.3 30.0924 15.9 29.5324 15.604C28.9804 15.3 28.2964 15.148 27.4804 15.148C26.6324 15.148 25.9004 15.268 25.2844 15.508C24.6684 15.74 24.1564 16.044 23.7484 16.42C23.3404 16.796 23.0164 17.204 22.7764 17.644C22.5364 18.084 22.3644 18.512 22.2604 18.928C22.1564 19.336 22.1044 19.692 22.1044 19.996C22.1044 20.628 22.2004 21.18 22.3924 21.652C22.5844 22.116 22.8524 22.496 23.1964 22.792C23.5484 23.096 23.9564 23.32 24.4204 23.464C24.8924 23.616 25.4044 23.692 25.9564 23.692C26.4284 23.692 26.8884 23.616 27.3364 23.464C27.7924 23.32 28.2164 23.124 28.6084 22.876L29.1004 23.584C28.7884 23.824 28.4404 24.02 28.0564 24.172C27.6804 24.332 27.2964 24.448 26.9044 24.52C26.5124 24.6 26.1364 24.64 25.7764 24.64ZM26.3164 21.124C26.6924 21.124 27.0244 21.02 27.3124 20.812C27.6084 20.596 27.8324 20.304 27.9844 19.936L28.1164 18.904C28.0684 18.576 27.9124 18.304 27.6484 18.088C27.3844 17.872 27.0524 17.764 26.6524 17.764C26.3164 17.764 26.0124 17.852 25.7404 18.028C25.4684 18.204 25.2524 18.436 25.0924 18.724C24.9324 19.004 24.8524 19.308 24.8524 19.636C24.8524 20.06 24.9884 20.416 25.2604 20.704C25.5324 20.984 25.8844 21.124 26.3164 21.124ZM34.1071 13.3H39.8071V14.512H35.3551V17.02H39.3271V18.232H35.3551V20.788H39.9751V22H34.1071V13.3ZM42.7624 16.984L42.8824 18.424L42.8344 18.232C42.9704 17.928 43.1584 17.668 43.3984 17.452C43.6464 17.236 43.9024 17.072 44.1664 16.96C44.4384 16.84 44.6664 16.78 44.8504 16.78L44.7904 17.98C44.4144 17.956 44.0824 18.028 43.7944 18.196C43.5144 18.364 43.2944 18.588 43.1344 18.868C42.9744 19.148 42.8944 19.448 42.8944 19.768V22H41.6824V16.984H42.7624ZM47.3447 16.984L47.4527 18.148L47.4047 17.98C47.5647 17.62 47.8207 17.332 48.1727 17.116C48.5327 16.9 48.9527 16.792 49.4327 16.792C49.9047 16.792 50.2927 16.932 50.5967 17.212C50.9007 17.484 51.0567 17.844 51.0647 18.292V22H49.8527V18.712C49.8447 18.456 49.7687 18.248 49.6247 18.088C49.4807 17.92 49.2567 17.832 48.9527 17.824C48.5287 17.824 48.1727 18 47.8847 18.352C47.6047 18.704 47.4647 19.156 47.4647 19.708V22H46.2527V16.984H47.3447ZM55.3195 22.12C54.7435 22.12 54.2475 22.008 53.8315 21.784C53.4155 21.552 53.0955 21.236 52.8715 20.836C52.6475 20.428 52.5355 19.968 52.5355 19.456C52.5355 18.96 52.6595 18.512 52.9075 18.112C53.1635 17.704 53.5035 17.38 53.9275 17.14C54.3515 16.9 54.8235 16.78 55.3435 16.78C56.0155 16.78 56.5715 16.976 57.0115 17.368C57.4595 17.752 57.7595 18.296 57.9115 19L53.8195 20.416L53.5315 19.72L56.8195 18.52L56.5675 18.688C56.4715 18.432 56.3195 18.212 56.1115 18.028C55.9035 17.836 55.6195 17.74 55.2595 17.74C54.8115 17.74 54.4435 17.896 54.1555 18.208C53.8755 18.512 53.7355 18.904 53.7355 19.384C53.7355 19.896 53.8875 20.308 54.1915 20.62C54.4955 20.932 54.8795 21.088 55.3435 21.088C55.5595 21.088 55.7675 21.052 55.9675 20.98C56.1675 20.9 56.3555 20.796 56.5315 20.668L57.0835 21.568C56.8275 21.736 56.5435 21.872 56.2315 21.976C55.9275 22.072 55.6235 22.12 55.3195 22.12ZM60.7242 22.108C60.3562 22.108 60.0042 22.044 59.6682 21.916C59.3322 21.78 59.0482 21.588 58.8162 21.34L59.3322 20.644C59.5402 20.844 59.7562 20.996 59.9802 21.1C60.2122 21.204 60.4282 21.256 60.6282 21.256C60.8602 21.256 61.0642 21.212 61.2402 21.124C61.4162 21.028 61.5042 20.872 61.5042 20.656C61.5042 20.48 61.4442 20.344 61.3242 20.248C61.2122 20.152 61.0682 20.072 60.8922 20.008C60.7162 19.944 60.5282 19.884 60.3282 19.828C59.9122 19.692 59.5922 19.5 59.3682 19.252C59.1522 18.996 59.0442 18.696 59.0442 18.352C59.0442 18.088 59.1082 17.84 59.2362 17.608C59.3722 17.368 59.5762 17.176 59.8482 17.032C60.1202 16.88 60.4562 16.804 60.8562 16.804C61.2082 16.804 61.5242 16.848 61.8042 16.936C62.0842 17.016 62.3442 17.156 62.5842 17.356L62.1162 18.088C61.9722 17.944 61.8002 17.836 61.6002 17.764C61.4082 17.684 61.2322 17.64 61.0722 17.632C60.8562 17.632 60.6682 17.684 60.5082 17.788C60.3482 17.884 60.2682 18.016 60.2682 18.184C60.2682 18.352 60.3242 18.488 60.4362 18.592C60.5482 18.688 60.6922 18.768 60.8682 18.832C61.0522 18.888 61.2362 18.948 61.4202 19.012C61.7882 19.132 62.0922 19.296 62.3322 19.504C62.5802 19.712 62.7042 20.016 62.7042 20.416C62.7042 20.72 62.6322 21 62.4882 21.256C62.3442 21.512 62.1242 21.72 61.8282 21.88C61.5402 22.032 61.1722 22.108 60.7242 22.108ZM64.721 14.788H65.945V16.996H67.289V17.944H65.945V22H64.721V17.944H63.833V16.996H64.721V14.788ZM68.1918 19.444C68.1918 18.94 68.3118 18.488 68.5518 18.088C68.7918 17.68 69.1238 17.36 69.5478 17.128C69.9718 16.896 70.4558 16.78 70.9998 16.78C71.5518 16.78 72.0318 16.896 72.4398 17.128C72.8558 17.36 73.1758 17.68 73.3998 18.088C73.6318 18.488 73.7478 18.94 73.7478 19.444C73.7478 19.948 73.6318 20.404 73.3998 20.812C73.1678 21.212 72.8438 21.532 72.4278 21.772C72.0198 22.004 71.5358 22.12 70.9758 22.12C70.4478 22.12 69.9718 22.012 69.5478 21.796C69.1318 21.58 68.7998 21.272 68.5518 20.872C68.3118 20.464 68.1918 19.988 68.1918 19.444ZM69.4158 19.456C69.4158 19.768 69.4838 20.052 69.6198 20.308C69.7558 20.556 69.9398 20.756 70.1718 20.908C70.4118 21.052 70.6758 21.124 70.9638 21.124C71.4198 21.124 71.7918 20.964 72.0798 20.644C72.3758 20.324 72.5238 19.928 72.5238 19.456C72.5238 18.984 72.3758 18.588 72.0798 18.268C71.7918 17.94 71.4198 17.776 70.9638 17.776C70.6678 17.776 70.4038 17.852 70.1718 18.004C69.9398 18.156 69.7558 18.36 69.6198 18.616C69.4838 18.872 69.4158 19.152 69.4158 19.456ZM75.4977 13.3H76.7457V20.788H81.1137V22H75.4977V13.3ZM84.8097 22.12C84.3377 22.12 83.9097 22.02 83.5257 21.82C83.1417 21.62 82.8377 21.328 82.6137 20.944C82.3897 20.552 82.2777 20.068 82.2777 19.492C82.2777 18.932 82.3937 18.452 82.6257 18.052C82.8657 17.644 83.1777 17.332 83.5617 17.116C83.9537 16.892 84.3777 16.78 84.8337 16.78C85.3137 16.78 85.7097 16.88 86.0217 17.08C86.3337 17.28 86.5737 17.52 86.7417 17.8L86.6697 17.992L86.7897 16.984H87.9057V22H86.6937V20.728L86.8137 21.028C86.7817 21.092 86.7137 21.184 86.6097 21.304C86.5057 21.424 86.3697 21.548 86.2017 21.676C86.0337 21.796 85.8297 21.9 85.5897 21.988C85.3577 22.076 85.0977 22.12 84.8097 22.12ZM85.1337 21.124C85.5337 21.124 85.8697 21.02 86.1417 20.812C86.4217 20.596 86.6057 20.304 86.6937 19.936V18.904C86.5977 18.576 86.4017 18.304 86.1057 18.088C85.8177 17.872 85.4817 17.764 85.0977 17.764C84.8097 17.764 84.5457 17.836 84.3057 17.98C84.0657 18.116 83.8737 18.312 83.7297 18.568C83.5857 18.816 83.5137 19.104 83.5137 19.432C83.5137 19.752 83.5857 20.04 83.7297 20.296C83.8817 20.552 84.0817 20.756 84.3297 20.908C84.5777 21.052 84.8457 21.124 85.1337 21.124ZM90.3276 17.98C90.0716 17.98 89.8516 17.9 89.6676 17.74C89.4836 17.572 89.3916 17.332 89.3916 17.02V16.504H90.3156V16.672C90.3156 16.808 90.3476 16.896 90.4116 16.936C90.4756 16.968 90.5796 16.984 90.7236 16.984H93.9276L90.9636 21.256L90.7236 21.004H93.8796V22H89.1756L92.1996 17.632L92.3916 17.98H90.3276ZM97.5597 22.12C97.0877 22.12 96.6597 22.02 96.2757 21.82C95.8917 21.62 95.5877 21.328 95.3637 20.944C95.1397 20.552 95.0277 20.068 95.0277 19.492C95.0277 18.932 95.1437 18.452 95.3757 18.052C95.6157 17.644 95.9277 17.332 96.3117 17.116C96.7037 16.892 97.1277 16.78 97.5837 16.78C98.0637 16.78 98.4597 16.88 98.7717 17.08C99.0837 17.28 99.3237 17.52 99.4917 17.8L99.4197 17.992L99.5397 16.984H100.656V22H99.4437V20.728L99.5637 21.028C99.5317 21.092 99.4637 21.184 99.3597 21.304C99.2557 21.424 99.1197 21.548 98.9517 21.676C98.7837 21.796 98.5797 21.9 98.3397 21.988C98.1077 22.076 97.8477 22.12 97.5597 22.12ZM97.8837 21.124C98.2837 21.124 98.6197 21.02 98.8917 20.812C99.1717 20.596 99.3557 20.304 99.4437 19.936V18.904C99.3477 18.576 99.1517 18.304 98.8557 18.088C98.5677 17.872 98.2317 17.764 97.8477 17.764C97.5597 17.764 97.2957 17.836 97.0557 17.98C96.8157 18.116 96.6237 18.312 96.4797 18.568C96.3357 18.816 96.2637 19.104 96.2637 19.432C96.2637 19.752 96.3357 20.04 96.4797 20.296C96.6317 20.552 96.8317 20.756 97.0797 20.908C97.3277 21.052 97.5957 21.124 97.8837 21.124ZM103.63 16.984L103.75 18.424L103.702 18.232C103.838 17.928 104.026 17.668 104.266 17.452C104.514 17.236 104.77 17.072 105.034 16.96C105.306 16.84 105.534 16.78 105.718 16.78L105.658 17.98C105.282 17.956 104.95 18.028 104.662 18.196C104.382 18.364 104.162 18.588 104.002 18.868C103.842 19.148 103.762 19.448 103.762 19.768V22H102.55V16.984H103.63ZM106.477 19.444C106.477 18.94 106.597 18.488 106.837 18.088C107.077 17.68 107.409 17.36 107.833 17.128C108.257 16.896 108.741 16.78 109.285 16.78C109.837 16.78 110.317 16.896 110.725 17.128C111.141 17.36 111.461 17.68 111.685 18.088C111.917 18.488 112.033 18.94 112.033 19.444C112.033 19.948 111.917 20.404 111.685 20.812C111.453 21.212 111.129 21.532 110.713 21.772C110.305 22.004 109.821 22.12 109.261 22.12C108.733 22.12 108.257 22.012 107.833 21.796C107.417 21.58 107.085 21.272 106.837 20.872C106.597 20.464 106.477 19.988 106.477 19.444ZM107.701 19.456C107.701 19.768 107.769 20.052 107.905 20.308C108.041 20.556 108.225 20.756 108.457 20.908C108.697 21.052 108.961 21.124 109.249 21.124C109.705 21.124 110.077 20.964 110.365 20.644C110.661 20.324 110.809 19.928 110.809 19.456C110.809 18.984 110.661 18.588 110.365 18.268C110.077 17.94 109.705 17.776 109.249 17.776C108.953 17.776 108.689 17.852 108.457 18.004C108.225 18.156 108.041 18.36 107.905 18.616C107.769 18.872 107.701 19.152 107.701 19.456ZM114.947 22.108C114.579 22.108 114.227 22.044 113.891 21.916C113.555 21.78 113.271 21.588 113.039 21.34L113.555 20.644C113.763 20.844 113.979 20.996 114.203 21.1C114.435 21.204 114.651 21.256 114.851 21.256C115.083 21.256 115.287 21.212 115.463 21.124C115.639 21.028 115.727 20.872 115.727 20.656C115.727 20.48 115.667 20.344 115.547 20.248C115.435 20.152 115.291 20.072 115.115 20.008C114.939 19.944 114.751 19.884 114.551 19.828C114.135 19.692 113.815 19.5 113.591 19.252C113.375 18.996 113.267 18.696 113.267 18.352C113.267 18.088 113.331 17.84 113.459 17.608C113.595 17.368 113.799 17.176 114.071 17.032C114.343 16.88 114.679 16.804 115.079 16.804C115.431 16.804 115.747 16.848 116.027 16.936C116.307 17.016 116.567 17.156 116.807 17.356L116.339 18.088C116.195 17.944 116.023 17.836 115.823 17.764C115.631 17.684 115.455 17.64 115.295 17.632C115.079 17.632 114.891 17.684 114.731 17.788C114.571 17.884 114.491 18.016 114.491 18.184C114.491 18.352 114.547 18.488 114.659 18.592C114.771 18.688 114.915 18.768 115.091 18.832C115.275 18.888 115.459 18.948 115.643 19.012C116.011 19.132 116.315 19.296 116.555 19.504C116.803 19.712 116.927 20.016 116.927 20.416C116.927 20.72 116.855 21 116.711 21.256C116.567 21.512 116.347 21.72 116.051 21.88C115.763 22.032 115.395 22.108 114.947 22.108Z" fill="#001D4E"/>
<path d="M9.9263 12.0159C9.00036 11.3626 8.40808 10.4137 8.39719 8.50584C5.9503 3.69606 2.23952 5.51917 1.0083 7.63356C4.05447 8.01467 2.56386 13.3374 2.56386 13.3374C6.45274 13.1429 5.43036 17.2745 5.43036 17.2745C9.35308 16.0526 11.9617 19.6654 11.9617 19.6654C11.3209 20.5832 11.2555 22.2321 11.8412 22.5587C12.4269 22.8854 14.4203 24.2169 14.4203 24.2169L16.2135 22.3689C16.2135 22.3689 17.0379 21.5873 15.3599 19.6195C16.3546 17.6401 17.6601 16.6223 19.885 16.6153C20.5196 11.8339 23.8423 12.2073 23.8423 12.2073C24.2137 8.10684 27.2544 7.13228 27.2544 7.13228C22.9805 2.77283 18.3139 6.27206 17.421 8.07145C17.309 8.29739 17.2677 10.7626 16.0999 11.797C14.1244 12.8486 12.0776 13.0519 9.9263 12.0156V12.0159Z" fill="#3F3F3F"/>
<path d="M11.8219 13.7931C10.5833 12.817 10.7851 11.3478 10.7851 11.3478L11.0597 8.86357C11.0597 8.86357 12.3714 10.3048 12.4006 10.3841L13.3825 10.4759L14.5842 8.7644C14.5842 8.7644 15.6665 12.6774 14.3345 13.8822" fill="#3F3F3F"/>
<path d="M9.62024 12.2563C8.6943 11.6029 8.40808 10.4137 8.39719 8.50584C5.9503 3.69606 2.23952 5.51917 1.0083 7.63356C4.05447 8.01467 2.56386 13.3374 2.56386 13.3374C6.45274 13.1429 5.43036 17.2745 5.43036 17.2745C9.35308 16.0526 11.9617 19.6654 11.9617 19.6654C11.3209 20.5832 11.2555 22.2321 11.8412 22.5587C12.4269 22.8854 14.4203 24.2169 14.4203 24.2169L16.2135 22.3689C16.2135 22.3689 17.0379 21.5873 15.3599 19.6195C16.3546 17.6401 17.6601 16.6223 19.885 16.6153C20.5196 11.8339 23.8423 12.2073 23.8423 12.2073C24.2137 8.10684 27.2544 7.13228 27.2544 7.13228C22.9805 2.77283 18.3139 6.27206 17.421 8.07145C17.309 8.29739 17.5995 10.9337 16.4312 11.9681" stroke="black" stroke-miterlimit="10" stroke-linecap="round" stroke-linejoin="round"/>
<path d="M11.8219 13.6633C10.5833 12.6876 10.7851 11.2184 10.7851 11.2184L11.0597 8.73418C11.0597 8.73418 12.3714 10.1754 12.4006 10.2547L13.3825 10.3461L14.5842 8.63501C14.5842 8.63501 15.6665 12.548 14.3345 13.7528" stroke="black" stroke-miterlimit="10" stroke-linecap="round" stroke-linejoin="round"/>
</svg>
