<svg width="24" height="24" viewBox="0 0 24 24" fill="none" xmlns="http://www.w3.org/2000/svg">
<path d="M16 3H8C7.65267 3.00384 7.31234 3.09807 7.0125 3.27342C6.71266 3.44876 6.46365 3.69918 6.29 4L2.29 11C2.11446 11.304 2.02205 11.6489 2.02205 12C2.02205 12.3511 2.11446 12.696 2.29 13L6.29 20C6.46365 20.3008 6.71266 20.5512 7.0125 20.7266C7.31234 20.9019 7.65267 20.9962 8 21H16C16.3524 21.0014 16.6989 20.9096 17.0045 20.734C17.3101 20.5584 17.5638 20.3052 17.74 20L21.74 13C21.9155 12.696 22.0079 12.3511 22.0079 12C22.0079 11.6489 21.9155 11.304 21.74 11L17.74 4C17.5638 3.69479 17.3101 3.44156 17.0045 3.26596C16.6989 3.09035 16.3524 2.9986 16 3Z" fill="#001D4E"/>
</svg>
